<svg fill="#000000" xmlns="http://www.w3.org/2000/svg"  viewBox="0 0 50 50" width="150px" height="150px"><path d="M 7 7 C 5.346 7 4 8.346 4 10 L 4 40 C 4 41.654 5.346 43 7 43 L 24.871094 43 L 26.871094 41 L 7 41 C 6.448 41 6 40.551 6 40 L 6 15 L 44 15 L 44 25.201172 C 44.002 25.201172 44.003859 25.202125 44.005859 25.203125 C 44.346859 25.273125 44.680813 25.360844 45.007812 25.464844 C 45.057812 25.480844 45.10625 25.503531 45.15625 25.519531 C 45.43225 25.611531 45.70375 25.711172 45.96875 25.826172 C 45.97875 25.830172 45.988047 25.833891 45.998047 25.837891 L 45.998047 10 C 45.998047 8.346 44.652047 7 42.998047 7 L 7 7 z M 7 9 L 43 9 C 43.552 9 44 9.449 44 10 L 44 13 L 6 13 L 6 10 C 6 9.449 6.448 9 7 9 z M 8 10 A 1 1 0 0 0 7 11 A 1 1 0 0 0 8 12 A 1 1 0 0 0 9 11 A 1 1 0 0 0 8 10 z M 11 10 A 1 1 0 0 0 10 11 A 1 1 0 0 0 11 12 A 1 1 0 0 0 12 11 A 1 1 0 0 0 11 10 z M 14 10 A 1 1 0 0 0 13 11 A 1 1 0 0 0 14 12 A 1 1 0 0 0 15 11 A 1 1 0 0 0 14 10 z M 42 27 C 37.6 27 34 30.6 34 35 C 34 35.5 34.099219 36 34.199219 36.5 L 27.400391 43.300781 C 27.200391 43.500781 27.099609 43.7 27.099609 44 L 27.099609 49 C 27.099609 49.6 27.499609 50 28.099609 50 L 33 50 C 33.3 50 33.499219 49.899219 33.699219 49.699219 L 34.400391 49 L 37 49 C 37.6 49 38 48.6 38 48 L 38 46 L 40 46 C 40.6 46 41 45.6 41 45 L 41 42.900391 C 41.3 43.000391 41.7 43 42 43 C 46.4 43 50 39.4 50 35 C 50 30.6 46.4 27 42 27 z M 42 29 C 45.3 29 48 31.7 48 35 C 48 38.3 45.3 41 42 41 C 38.7 41 36 38.3 36 35 C 36 31.7 38.7 29 42 29 z M 12 30 A 2 2 0 0 0 10 32 A 2 2 0 0 0 12 34 A 2 2 0 0 0 14 32 A 2 2 0 0 0 12 30 z M 20 30 A 2 2 0 0 0 18 32 A 2 2 0 0 0 20 34 A 2 2 0 0 0 22 32 A 2 2 0 0 0 20 30 z M 28 30 A 2 2 0 0 0 26 32 A 2 2 0 0 0 28 34 A 2 2 0 0 0 30 32 A 2 2 0 0 0 28 30 z M 44 31 C 42.9 31 42 31.9 42 33 C 42 34.1 42.9 35 44 35 C 45.1 35 46 34.1 46 33 C 46 31.9 45.1 31 44 31 z M 34.800781 38.599609 C 35.100781 39.099609 35.400781 39.599609 35.800781 40.099609 L 32.199219 43.699219 C 31.799219 44.099219 31.799219 44.699609 32.199219 45.099609 C 32.399219 45.299609 32.700391 45.400391 32.900391 45.400391 C 33.100391 45.400391 33.399609 45.299609 33.599609 45.099609 L 37.300781 41.400391 C 37.800781 41.800391 38.4 42.200391 39 42.400391 L 38.900391 42.400391 L 38.900391 44 L 36.900391 44 C 36.300391 44 35.900391 44.4 35.900391 45 L 35.900391 47 L 33.900391 47 C 33.600391 47 33.399219 47.100781 33.199219 47.300781 L 32.5 48 L 29 48 L 29 44.400391 L 34.800781 38.599609 z"/></svg>